<?xml version="1.0" encoding="UTF-8" standalone="no"?>
<!-- Uploaded to: SVG Repo, www.svgrepo.com, Generator: SVG Repo Mixer Tools -->

<svg
   version="1.1"
   id="Layer_1"
   viewBox="0 0 262144 262144"
   xml:space="preserve"
   sodipodi:docname="avion_rouge_cote.svg"
   width="262144"
   height="262144"
   xmlns:inkscape="http://www.inkscape.org/namespaces/inkscape"
   xmlns:sodipodi="http://sodipodi.sourceforge.net/DTD/sodipodi-0.dtd"
   xmlns="http://www.w3.org/2000/svg"
   xmlns:svg="http://www.w3.org/2000/svg"><defs
   id="defs13" /><sodipodi:namedview
   id="namedview13"
   pagecolor="#ffffff"
   bordercolor="#000000"
   borderopacity="0.25"
   inkscape:showpageshadow="2"
   inkscape:pageopacity="0.0"
   inkscape:pagecheckerboard="0"
   inkscape:deskcolor="#d1d1d1"><inkscape:page
     x="0"
     y="0"
     width="262144"
     height="262144"
     id="page2"
     margin="0"
     bleed="0" /></sodipodi:namedview>
<polygon
   style="fill:#ffffff"
   points="225.325,228.109 97.822,228.109 42.04,132.482 10.164,132.482 10.164,259.985 73.916,315.767 225.325,315.767 225.325,483.113 257.2,483.113 310.751,315.767 440.485,315.767 472.36,275.922 424.547,228.109 320.952,228.109 257.2,28.887 225.325,28.887 "
   id="polygon1"
   transform="matrix(-1,0,0,1,512,0)" />
<g
   id="g2"
   transform="matrix(-1,0,0,1,512,0)">
	<rect
   x="233.498"
   y="291.85901"
   style="fill:#f9b233"
   width="15.527"
   height="183.283"
   id="rect1" />
	<rect
   x="233.498"
   y="36.855"
   style="fill:#f9b233"
   width="15.527"
   height="183.283"
   id="rect2" />
</g>
<g
   id="g5"
   transform="matrix(-1,0,0,1,512,0)">
	<polygon
   style="fill:#e30613"
   points="97.822,339.673 73.916,315.767 225.325,315.767 225.33,339.673 "
   id="polygon2" />
	<polygon
   style="fill:#e30613"
   points="504.236,323.735 480.33,339.673 297.045,339.673 305.014,315.767 440.485,315.767 472.36,275.922 496.267,283.891 504.236,307.798 "
   id="polygon3" />
	<polygon
   style="fill:#e30613"
   points="65.947,116.544 57.977,148.42 73.916,188.265 89.854,116.544 "
   id="polygon4" />
	<polygon
   style="fill:#e30613"
   points="34.071,228.109 10.164,315.767 34.071,315.767 65.947,228.109 "
   id="polygon5" />
</g>
<g
   id="g13"
   transform="matrix(-1,0,0,1,512,0)">
	<rect
   x="105.792"
   y="260.194"
   style="fill:#1d1d1b"
   width="15.938"
   height="15.527"
   id="rect5" />
	<rect
   x="137.664"
   y="260.194"
   style="fill:#1d1d1b"
   width="15.937"
   height="15.527"
   id="rect6" />
	<rect
   x="169.54601"
   y="260.194"
   style="fill:#1d1d1b"
   width="15.937"
   height="15.527"
   id="rect7" />
	<rect
   x="201.418"
   y="260.194"
   style="fill:#1d1d1b"
   width="15.937"
   height="15.527"
   id="rect8" />
	<rect
   x="233.28999"
   y="260.194"
   style="fill:#1d1d1b"
   width="15.937"
   height="15.527"
   id="rect9" />
	<rect
   x="265.173"
   y="260.194"
   style="fill:#1d1d1b"
   width="15.938"
   height="15.527"
   id="rect10" />
	<rect
   x="297.04501"
   y="260.194"
   style="fill:#1d1d1b"
   width="15.937"
   height="15.527"
   id="rect11" />
	<rect
   x="328.91699"
   y="260.194"
   style="fill:#1d1d1b"
   width="15.937"
   height="15.527"
   id="rect12" />
	<rect
   x="360.79999"
   y="260.194"
   style="fill:#1d1d1b"
   width="15.937"
   height="15.527"
   id="rect13" />
	<polygon
   style="fill:#1d1d1b"
   points="249.232,84.464 249.232,68.936 233.089,68.936 233.089,36.65 251.448,36.65 305.556,214.431 320.409,209.911 262.952,21.123 217.561,21.123 217.561,212.171 233.089,212.171 233.089,116.339 249.232,116.339 249.232,100.812 233.089,100.812 233.089,84.464 "
   id="polygon13" />
	<path
   style="fill:#1d1d1b"
   d="m 475.716,268.299 -36.368,-36.368 c -7.472,-7.472 -17.406,-11.586 -27.972,-11.586 H 102.282 l -17.913,-30.707 0.083,0.016 14.704,-80.873 H 60.017 l -7.269,26.652 -6.25,-10.714 H 2.4 v 138.7 L 13.613,273.612 0,323.53 h 39.508 l 7.209,-19.824 48.103,43.731 h 122.74 v 143.44 h 45.391 l 43.656,-143.44 h 169.379 c 19.858,0 36.014,-16.155 36.014,-36.013 v -3.626 c 0,-20.728 -15.99,-37.79 -36.284,-39.499 z M 71.877,124.307 h 8.675 l -8.149,44.817 -8.687,-14.893 z M 20.329,308.003 40.001,235.872 h 14.862 l -26.23,72.131 z m 80.494,23.907 -9.218,-8.379 H 217.56 v 8.379 z m 150.625,143.44 h -18.359 v -32.286 h 16.143 v -15.527 h -16.143 v -16.348 h 16.143 V 395.662 H 233.089 V 291.86 h -15.527 v 16.143 H 74.526 L 52.452,287.936 77.032,220.345 H 28.142 L 18.2,256.797 17.929,256.55 V 140.245 h 19.652 l 55.783,95.627 h 318.013 c 6.419,0 12.454,2.5 16.993,7.039 l 17.279,17.279 h -29.071 v 15.527 h 44.598 l 0.782,0.782 -25.204,31.505 H 318.609 l 1.8,-5.914 -14.854,-4.52 z M 496.473,311.424 c 0,11.295 -9.19,20.486 -20.487,20.486 H 311.333 l 2.551,-8.379 h 130.332 l 31.667,-39.585 c 11.632,1.71 20.589,11.753 20.589,23.852 v 3.627 h 0.001 z"
   id="path13" />
</g>
</svg>
