<?xml version="1.0" encoding="UTF-8" standalone="no"?>
<!-- Uploaded to: SVG Repo, www.svgrepo.com, Generator: SVG Repo Mixer Tools -->

<svg
   height="800"
   width="800"
   version="1.1"
   id="Layer_1"
   viewBox="0 0 512 512"
   xml:space="preserve"
   sodipodi:docname="train_vert.svg"
   inkscape:export-filename="train_vert_left.svg"
   inkscape:export-xdpi="96"
   inkscape:export-ydpi="96"
   xmlns:inkscape="http://www.inkscape.org/namespaces/inkscape"
   xmlns:sodipodi="http://sodipodi.sourceforge.net/DTD/sodipodi-0.dtd"
   xmlns="http://www.w3.org/2000/svg"
   xmlns:svg="http://www.w3.org/2000/svg"><defs
   id="defs23" /><sodipodi:namedview
   id="namedview23"
   pagecolor="#ffffff"
   bordercolor="#000000"
   borderopacity="0.25"
   inkscape:showpageshadow="2"
   inkscape:pageopacity="0.0"
   inkscape:pagecheckerboard="0"
   inkscape:deskcolor="#d1d1d1"><inkscape:page
     x="0"
     y="0"
     width="512"
     height="512"
     id="page2"
     margin="0"
     bleed="0" /></sodipodi:namedview>
<g
   id="g4"
   transform="matrix(-1,0,0,1,511.999,0)">
	<path
   style="fill:#717272"
   d="m 418.133,418.149 c 0,9.387 -7.68,17.067 -17.067,17.067 -9.387,0 -17.066,-7.681 -17.066,-17.067 z"
   id="path1" />
	<path
   style="fill:#717272"
   d="m 324.267,418.149 c 0,9.387 -7.68,17.067 -17.067,17.067 -9.387,0 -17.067,-7.68 -17.067,-17.067 z"
   id="path2" />
	<path
   style="fill:#717272"
   d="m 136.533,418.149 c 0,9.387 -7.68,17.067 -17.067,17.067 -9.387,0 -17.067,-7.68 -17.067,-17.067 z"
   id="path3" />
	<path
   style="fill:#717272"
   d="m 230.4,418.149 c 0,9.387 -7.68,17.067 -17.067,17.067 -9.387,0 -17.067,-7.68 -17.067,-17.067 z"
   id="path4" />
</g>
<path
   d="M 8.5320002,452.282 H 110.932 h 93.867 93.867 93.867 110.933 c 4.719,0 8.533,3.823 8.533,8.533 0,4.71 -3.814,8.533 -8.533,8.533 H 8.5330002 C 3.8140002,469.348 1.9659893e-7,465.525 1.9659893e-7,460.815 -9.998034e-4,456.105 3.8130002,452.282 8.5320002,452.282 Z"
   id="path5" />
<path
   d="m 34.132,366.949 h 20.992 l 5.717,-8.533 h -1.109 c -14.592,0 -25.6,-18.347 -25.6,-42.667 0,-24.32 11.008,-42.667 25.6,-42.667 h 42.667 v -17.067 c 0,-11.179 7.253,-20.651 17.323,-24.149 -0.512,-1.536 -1.024,-3.157 -1.28,-4.949 -1.28,-9.216 1.707,-18.176 7.851,-24.661 -2.56,-8.704 -2.304,-19.797 3.755,-28.587 2.987,-4.267 9.216,-10.496 21.248,-11.776 -1.365,-13.739 4.011,-27.051 15.189,-36.523 13.739,-11.605 32.427,-14.933 49.323,-9.472 1.536,-3.755 3.84,-6.912 6.912,-9.301 3.669,-2.816 8.107,-4.437 13.483,-4.949 -2.048,-13.227 0.853,-26.283 8.363,-37.035 10.155,-14.421 26.709,-22.528 45.568,-21.931 20.224,0 40.363,10.923 50.176,27.307 6.997,11.691 8.021,25.088 3.072,38.229 20.395,16.981 22.528,39.851 14.933,55.979 -7.68,16.469 -26.965,29.696 -53.845,25.088 -3.499,6.997 -10.155,13.483 -18.688,17.664 -11.776,5.888 -25.088,6.912 -37.632,2.987 -1.28,8.021 -5.291,13.824 -9.216,17.664 -15.189,15.019 -43.776,16.811 -65.792,12.203 -5.632,4.352 -13.141,7.253 -20.907,8.363 0.853,2.475 1.365,5.12 1.365,7.851 v 17.067 h 44.544 c 4.608,-10.069 17.152,-17.067 32.256,-17.067 15.104,0 27.648,6.997 32.256,17.067 h 61.611 v -17.067 c 0,-4.693 3.84,-8.533 8.533,-8.533 h 119.466 c 4.693,0 8.533,3.84 8.533,8.533 v 25.6 c 0,3.925 -2.645,7.339 -6.485,8.277 l -27.648,6.912 v 70.144 h 42.666 c 4.693,0 8.533,3.84 8.533,8.533 v 34.133 c 0,4.693 -3.84,8.533 -8.533,8.533 h -42.667 c 0,18.859 -15.275,34.133 -34.133,34.133 -18.858,0 -34.133,-15.275 -34.133,-34.133 h -25.6 c 0,18.859 -15.275,34.133 -34.133,34.133 -18.858,0 -34.133,-15.275 -34.133,-34.133 h -25.6 c 0,18.859 -15.275,34.133 -34.133,34.133 -18.859,0 -34.133,-15.275 -34.133,-34.133 h -25.6 c 0,18.859 -15.275,34.133 -34.133,34.133 -18.859,0 -34.133,-15.275 -34.133,-34.133 H 34.134 c -4.693,0 -8.533,-3.84 -8.533,-8.533 v -34.133 c -0.002,-4.694 3.838,-8.534 8.531,-8.534 z M 164.266,224.698 c 1.707,-1.792 4.011,-2.816 6.4,-2.816 0.683,0 1.451,0.085 2.219,0.256 21.248,5.632 44.544,2.816 54.016,-6.656 4.352,-4.352 5.632,-9.899 3.755,-17.067 -0.853,-3.413 0.427,-6.997 3.328,-9.045 2.816,-2.048 6.656,-2.133 9.557,-0.256 15.701,10.155 29.44,5.205 34.645,2.645 7.509,-3.84 11.691,-9.472 11.947,-13.141 0.171,-2.56 1.536,-4.949 3.669,-6.4 2.133,-1.451 4.779,-1.877 7.253,-1.195 22.869,6.656 36.864,-3.413 41.813,-14.08 4.779,-10.155 3.755,-26.453 -14.848,-38.912 -3.584,-2.475 -4.779,-7.253 -2.731,-11.093 5.376,-10.069 5.547,-19.627 0.341,-28.245 -6.571,-11.008 -21.504,-18.944 -35.669,-18.944 -13.056,-0.341 -24.661,5.035 -31.403,14.677 -6.571,9.387 -7.765,21.589 -3.157,33.451 1.109,2.901 0.597,6.144 -1.365,8.533 -1.963,2.389 -5.12,3.499 -8.192,2.901 -6.059,-1.109 -10.496,-0.853 -12.629,0.768 -2.048,1.621 -2.645,5.461 -2.816,8.448 -0.171,2.901 -1.877,5.632 -4.523,6.997 -2.645,1.451 -5.803,1.365 -8.363,-0.171 -14.763,-8.704 -31.061,-4.523 -40.021,3.072 -4.267,3.584 -13.397,13.568 -7.424,29.184 1.109,2.816 0.597,5.973 -1.28,8.363 -1.877,2.389 -4.864,3.584 -7.851,3.157 -5.717,-0.853 -13.397,-0.683 -16.896,4.267 -3.243,4.779 -2.56,12.715 0,17.323 2.133,3.925 0.853,8.875 -2.901,11.264 -5.035,3.328 -6.315,8.704 -5.803,12.715 0.427,3.072 1.963,5.547 3.669,6.059 9.302,2.816 20.737,-0.939 25.26,-6.059 z m 160,65.451 h -68.267 c -4.693,0 -8.533,-3.84 -8.533,-8.533 0,-3.499 -6.656,-8.533 -17.067,-8.533 -10.411,0 -17.067,5.035 -17.067,8.533 0,4.693 -3.84,8.533 -8.533,8.533 h -59.733 c -4.693,0 -8.533,-3.84 -8.533,-8.533 v -25.6 c 0,-4.693 -3.84,-8.533 -8.533,-8.533 -4.693,0 -8.533,3.84 -8.533,8.533 v 25.6 c 0,4.693 -3.84,8.533 -8.533,8.533 h -51.2 c -2.133,0 -8.533,9.045 -8.533,25.6 0,16.555 6.4,25.6 8.533,25.6 h 17.065 c 3.157,0 6.059,1.707 7.509,4.523 1.536,2.731 1.365,6.144 -0.427,8.704 l -8.192,12.373 h 248.577 z m 68.266,145.066 c 9.387,0 17.067,-7.68 17.067,-17.067 h -34.133 c 0,9.387 7.68,17.067 17.066,17.067 z m -93.866,0 c 9.387,0 17.067,-7.68 17.067,-17.067 h -34.134 c 0,9.387 7.68,17.067 17.067,17.067 z m -93.867,0 c 9.387,0 17.067,-7.68 17.067,-17.067 h -34.133 c -0.001,9.387 7.679,17.067 17.066,17.067 z m -93.867,0 c 9.387,0 17.067,-7.68 17.067,-17.067 H 93.866 c 0,9.387 7.68,17.067 17.066,17.067 z M 42.666,401.082 h 418.133 v -17.067 h -42.667 c -4.693,0 -8.533,-3.84 -8.533,-8.533 v -85.333 c 0,-3.925 2.645,-7.339 6.485,-8.277 l 27.648,-6.912 v -10.411 h -102.4 v 110.933 c 0,4.693 -3.84,8.533 -8.533,8.533 H 42.666 Z"
   id="path6" />
<path
   style="fill:#004d40"
   d="m 42.666,384.015 v 17.067 h 418.133 v -17.067 h -42.667 c -4.693,0 -8.533,-3.84 -8.533,-8.533 v -85.333 c 0,-3.925 2.645,-7.339 6.485,-8.277 l 27.648,-6.912 v -10.411 h -102.4 v 110.933 c 0,4.693 -3.84,8.533 -8.533,8.533 z"
   id="path7" />
<path
   style="fill:#00796b"
   d="m 51.199,315.749 c 0,16.555 6.4,25.6 8.533,25.6 h 17.067 c 3.157,0 6.059,1.707 7.509,4.523 1.536,2.731 1.365,6.144 -0.427,8.704 l -8.192,12.373 h 248.577 v -76.8 h -68.267 c -4.693,0 -8.533,-3.84 -8.533,-8.533 0,-3.499 -6.656,-8.533 -17.067,-8.533 -10.411,0 -17.067,5.035 -17.067,8.533 0,4.693 -3.84,8.533 -8.533,8.533 h -59.733 c -4.693,0 -8.533,-3.84 -8.533,-8.533 v -25.6 c 0,-4.693 -3.84,-8.533 -8.533,-8.533 -4.693,0 -8.533,3.84 -8.533,8.533 v 25.6 c 0,4.693 -3.84,8.533 -8.533,8.533 h -51.2 c -2.135,0 -8.535,9.045 -8.535,25.6 z"
   id="path8" />
<g
   id="g13"
   transform="matrix(-1,0,0,1,511.999,0)">
	<path
   style="fill:#bdbdbd"
   d="m 194.202,69.912 c 1.34,-1.092 2.756,-2.125 4.258,-3.063 -1.494,0.947 -2.91,1.971 -4.258,3.063 z"
   id="path9" />
	<path
   style="fill:#bdbdbd"
   d="m 198.707,66.703 c 1.655,-1.024 3.388,-1.954 5.188,-2.782 -1.8,0.82 -3.532,1.75 -5.188,2.782 z"
   id="path10" />
	<path
   style="fill:#bdbdbd"
   d="m 190.293,73.598 c 1.024,-1.109 2.099,-2.185 3.277,-3.183 -1.177,1.007 -2.261,2.065 -3.277,3.183 z"
   id="path11" />
	<path
   style="fill:#bdbdbd"
   d="m 186.368,78.693 c 0.896,-1.493 1.954,-2.918 3.14,-4.284 -1.177,1.365 -2.244,2.782 -3.14,4.284 z"
   id="path12" />
	<path
   style="fill:#bdbdbd"
   d="m 199.202,98.413 c 2.048,3.84 0.853,8.619 -2.731,11.093 -18.603,12.459 -19.627,28.757 -14.848,38.912 4.949,10.667 18.944,20.736 41.813,14.08 2.475,-0.683 5.12,-0.256 7.253,1.195 2.133,1.451 3.499,3.84 3.669,6.4 0.256,3.669 4.437,9.301 11.947,13.141 5.205,2.56 18.944,7.509 34.645,-2.645 2.901,-1.877 6.741,-1.792 9.557,0.256 2.901,2.048 4.181,5.632 3.328,9.045 -1.877,7.168 -0.597,12.715 3.755,17.067 9.472,9.472 32.768,12.288 54.016,6.656 0.768,-0.171 1.536,-0.256 2.219,-0.256 2.389,0 4.693,1.024 6.4,2.816 3.149,3.567 9.651,6.409 16.444,6.895 0.026,-3.755 -1.417,-8.183 -5.811,-11.093 -3.755,-2.389 -5.035,-7.339 -2.901,-11.264 2.56,-4.608 3.243,-12.544 0,-17.323 -3.499,-4.949 -11.179,-5.12 -16.896,-4.267 -2.987,0.427 -5.973,-0.768 -7.851,-3.157 -1.877,-2.389 -2.389,-5.547 -1.28,-8.363 5.973,-15.616 -3.157,-25.6 -7.424,-29.184 -8.96,-7.595 -25.259,-11.776 -40.021,-3.072 -2.56,1.536 -5.717,1.621 -8.363,0.171 -2.645,-1.365 -4.352,-4.096 -4.523,-6.997 -0.171,-2.987 -0.768,-6.827 -2.816,-8.448 -2.133,-1.621 -6.571,-1.877 -12.629,-0.768 -3.072,0.597 -6.229,-0.512 -8.192,-2.901 -1.963,-2.389 -2.475,-5.632 -1.365,-8.533 4.608,-11.861 3.413,-24.064 -3.157,-33.451 -6.741,-9.643 -18.347,-15.019 -31.403,-14.677 -6.161,0 -12.433,1.57 -18.133,4.173 -1.954,1.946 -3.703,4.011 -5.043,6.255 -5.206,8.618 -5.035,18.175 0.341,28.244 z"
   id="path13" />
</g>
<g
   id="g19"
   transform="matrix(-1,0,0,1,511.999,0)">
	<path
   style="fill:#90a4ae"
   d="m 203.904,63.922 h -0.009 z"
   id="path14" />
	<path
   style="fill:#90a4ae"
   d="m 189.508,74.4 c 0.239,-0.282 0.529,-0.538 0.785,-0.811 -0.256,0.282 -0.546,0.53 -0.785,0.811 z"
   id="path15" />
	<path
   style="fill:#90a4ae"
   d="m 198.46,66.848 c 0.077,-0.051 0.162,-0.102 0.247,-0.154 -0.077,0.061 -0.162,0.103 -0.247,0.154 z"
   id="path16" />
	<path
   style="fill:#90a4ae"
   d="m 376.661,224.698 c 0.068,-0.503 0.009,-1.084 0.009,-1.621 v 0 c 0,0.537 0.06,1.109 -0.009,1.621 z"
   id="path17" />
	<path
   style="fill:#90a4ae"
   d="m 193.57,70.415 c 0.205,-0.171 0.427,-0.333 0.631,-0.503 -0.204,0.171 -0.426,0.324 -0.631,0.503 z"
   id="path18" />
	<path
   style="fill:#90a4ae"
   d="m 360.226,216.173 c -1.707,-1.792 -4.011,-2.816 -6.4,-2.816 -0.683,0 -1.451,0.085 -2.219,0.256 -21.248,5.632 -44.544,2.816 -54.016,-6.656 -4.352,-4.352 -5.632,-9.899 -3.755,-17.067 0.853,-3.413 -0.427,-6.997 -3.328,-9.045 -2.816,-2.048 -6.656,-2.133 -9.557,-0.256 -15.701,10.155 -29.44,5.205 -34.645,2.645 -7.509,-3.84 -11.691,-9.472 -11.947,-13.141 -0.171,-2.56 -1.536,-4.949 -3.669,-6.4 -2.133,-1.451 -4.779,-1.877 -7.253,-1.195 -22.869,6.656 -36.864,-3.413 -41.813,-14.08 -4.779,-10.155 -3.755,-26.453 14.848,-38.912 3.584,-2.475 4.779,-7.253 2.731,-11.093 -5.376,-10.069 -5.547,-19.627 -0.341,-28.245 1.34,-2.236 3.089,-4.309 5.043,-6.255 v 0 c -1.801,0.819 -3.533,1.758 -5.188,2.782 -0.085,0.051 -0.162,0.102 -0.247,0.154 -1.502,0.939 -2.91,1.971 -4.258,3.063 -0.205,0.171 -0.427,0.324 -0.631,0.503 -1.195,0.998 -2.261,2.074 -3.285,3.183 -0.256,0.273 -0.538,0.529 -0.785,0.811 -1.178,1.365 -2.244,2.79 -3.14,4.284 -5.205,8.619 -5.035,18.176 0.341,28.245 2.048,3.84 0.853,8.619 -2.731,11.093 -18.603,12.459 -19.627,28.757 -14.848,38.912 4.949,10.667 18.944,20.736 41.813,14.08 2.475,-0.683 5.12,-0.256 7.253,1.195 2.133,1.451 3.499,3.84 3.669,6.4 0.256,3.669 4.437,9.301 11.947,13.141 5.205,2.56 18.944,7.509 34.645,-2.645 2.901,-1.877 6.741,-1.792 9.557,0.256 2.901,2.048 4.181,5.632 3.328,9.045 -1.877,7.168 -0.597,12.715 3.755,17.067 9.472,9.472 32.768,12.288 54.016,6.656 0.768,-0.171 1.536,-0.256 2.219,-0.256 2.389,0 4.693,1.024 6.4,2.816 4.523,5.12 15.957,8.875 25.259,6.059 1.707,-0.512 3.243,-2.987 3.669,-6.059 0.068,-0.503 0.009,-1.084 0.009,-1.621 -6.795,-0.495 -13.297,-3.337 -16.446,-6.904 z"
   id="path19" />
</g>
<g
   id="g23"
   transform="matrix(-1,0,0,1,511.999,0)">
	<path
   style="fill:#555656"
   d="m 412.092,418.149 c -1.715,7.603 -8.525,13.338 -16.623,13.338 -2.287,0 -4.471,-0.469 -6.468,-1.297 3.098,3.106 7.364,5.026 12.066,5.026 9.387,0 17.067,-7.68 17.067,-17.067 z"
   id="path20" />
	<path
   style="fill:#555656"
   d="m 318.225,418.149 c -1.715,7.603 -8.525,13.338 -16.623,13.338 -2.287,0 -4.471,-0.469 -6.468,-1.297 3.098,3.106 7.364,5.026 12.066,5.026 9.387,0 17.067,-7.68 17.067,-17.067 z"
   id="path21" />
	<path
   style="fill:#555656"
   d="m 130.492,418.149 c -1.715,7.603 -8.525,13.338 -16.623,13.338 -2.287,0 -4.471,-0.469 -6.468,-1.297 3.098,3.106 7.364,5.026 12.066,5.026 9.387,0 17.067,-7.68 17.067,-17.067 z"
   id="path22" />
	<path
   style="fill:#555656"
   d="m 224.358,418.149 c -1.715,7.603 -8.525,13.338 -16.623,13.338 -2.287,0 -4.471,-0.469 -6.468,-1.297 3.098,3.106 7.364,5.026 12.066,5.026 9.387,0 17.067,-7.68 17.067,-17.067 z"
   id="path23" />
</g>
</svg>
